<svg xmlns="http://www.w3.org/2000/svg" viewBox="0 0 720 300" width="720" height="300" role="img" aria-labelledby="t-p4-change"><title id="t-p4-change">변화점 먼저 — 결과가 바뀐 시점과 바뀐 것을 나란히 놓는다</title><defs><style>
text{font-family:Pretendard,'Apple SD Gothic Neo','Malgun Gothic','Noto Sans KR',system-ui,-apple-system,'Segoe UI',sans-serif}
.bg{fill:var(--fig-bg,#fcfcfb)}
.pn{fill:var(--fig-panel,#f1f2f4)}
.ink{fill:var(--fig-ink,#1c2230)}
.sub{fill:var(--fig-sub,#52514e)}
.mut{fill:var(--fig-mut,#898781)}
.ax{stroke:var(--fig-axis,#c3c2b7);fill:none}
.gr{stroke:var(--fig-grid,#e1e0d9);fill:none}
.ed{stroke:var(--fig-edge,#7d8797);fill:none}
.ah{fill:var(--fig-edge,#7d8797)}
.ring{stroke:var(--fig-bg,#fcfcfb)}
.f0{fill:var(--fig-0w,#eef0f3)} .s0{stroke:var(--fig-0,#8a94a6)} .k0{fill:var(--fig-0,#8a94a6)} .l0{stroke:var(--fig-0,#8a94a6);fill:none}
.f1{fill:var(--fig-1w,#dbe8fa)} .s1{stroke:var(--fig-1,#2a78d6)} .k1{fill:var(--fig-1,#2a78d6)} .l1{stroke:var(--fig-1,#2a78d6);fill:none}
.f2{fill:var(--fig-2w,#fbe1d5)} .s2{stroke:var(--fig-2,#eb6834)} .k2{fill:var(--fig-2,#eb6834)} .l2{stroke:var(--fig-2,#eb6834);fill:none}
.f3{fill:var(--fig-3w,#d3f1e5)} .s3{stroke:var(--fig-3,#1baf7a)} .k3{fill:var(--fig-3,#1baf7a)} .l3{stroke:var(--fig-3,#1baf7a);fill:none}
.f4{fill:var(--fig-4w,#fcefcc)} .s4{stroke:var(--fig-4,#eda100)} .k4{fill:var(--fig-4,#eda100)} .l4{stroke:var(--fig-4,#eda100);fill:none}
.f5{fill:var(--fig-5w,#e3dff7)} .s5{stroke:var(--fig-5,#4a3aa7)} .k5{fill:var(--fig-5,#4a3aa7)} .l5{stroke:var(--fig-5,#4a3aa7);fill:none}
.q1{fill:var(--fig-q1,#cde2fb)} .q2{fill:var(--fig-q2,#9ec5f4)} .q3{fill:var(--fig-q3,#6da7ec)}
.good{fill:#0ca30c} .crit{fill:#d03b3b} .critl{stroke:#d03b3b;fill:none} .critw{fill:#d03b3b;fill-opacity:.28}
.m-si{fill:var(--m-si,#c7ccd6)} .m-ox{fill:var(--m-ox,#cfe3f4)} .m-pr{fill:var(--m-pr,#cbbbe9)}
.m-cu{fill:var(--m-cu,#e09a5f)} .m-ni{fill:var(--m-ni,#a9b1bd)} .m-sn{fill:var(--m-sn,#dfe5ec)}
.m-imc{fill:var(--m-imc,#8f7b66)} .m-al{fill:var(--m-al,#b7c4d6)} .m-emc{fill:var(--m-emc,#4c5363)}
.m-sub{fill:var(--m-sub,#7f9c78)} .m-n{fill:var(--m-n,#9fc3f0)} .m-p{fill:var(--m-p,#f2d2c2)} .m-gate{fill:var(--m-gate,#8b93a7)}
.m-bath{fill:var(--m-bath,#e7f1fb)}
.nterm{fill:var(--n-term-fill,#e8f6ee);stroke:var(--n-term-stroke,#2e9e5b)}
.nproc{fill:var(--n-process-fill,#ffffff);stroke:var(--n-process-stroke,#8a94a6)}
.ndec{fill:var(--n-decision-fill,#fff6e3);stroke:var(--n-decision-stroke,#d9921a)}
.nio{fill:var(--n-io-fill,#edf2ff);stroke:var(--n-io-stroke,#5b7bd5)}
.mono{font-family:ui-monospace,'D2Coding',Consolas,monospace}
</style><marker id="ah-p4-change" viewBox="0 0 10 10" refX="9" refY="5" markerWidth="7" markerHeight="7" orient="auto-start-reverse"><path d="M0,0 L10,5 L0,10 z" class="ah"/></marker></defs><rect class="bg" x="0" y="0" width="720" height="300" rx="12"/><line class="gr" x1="70" y1="160" x2="690" y2="160" stroke-width="1"/><text class="mut" x="62" y="164" font-size="11.5" text-anchor="end">9.6</text><line class="gr" x1="70" y1="120" x2="690" y2="120" stroke-width="1"/><text class="mut" x="62" y="124" font-size="11.5" text-anchor="end">9.8</text><line class="gr" x1="70" y1="80" x2="690" y2="80" stroke-width="1"/><text class="mut" x="62" y="84" font-size="11.5" text-anchor="end">10.0</text><line class="gr" x1="70" y1="40" x2="690" y2="40" stroke-width="1"/><text class="mut" x="62" y="44" font-size="11.5" text-anchor="end">10.2</text><text class="sub" x="70" y="26" font-size="12" text-anchor="start">도금 두께 평균 (µm)</text><polyline class="l1" stroke-width="2" points="85.5,76 116.5,84 147.5,70 178.5,80 209.5,86 240.5,74 271.5,78 302.5,82 333.5,76 364.5,138 395.5,144 426.5,132 457.5,140 488.5,148 519.5,136 550.5,142 581.5,134 612.5,140 643.5,146 674.5,138"/><circle class="k1 ring" cx="85.5" cy="76" r="4" stroke-width="2"/><circle class="k1 ring" cx="116.5" cy="84" r="4" stroke-width="2"/><circle class="k1 ring" cx="147.5" cy="70" r="4" stroke-width="2"/><circle class="k1 ring" cx="178.5" cy="80" r="4" stroke-width="2"/><circle class="k1 ring" cx="209.5" cy="86" r="4" stroke-width="2"/><circle class="k1 ring" cx="240.5" cy="74" r="4" stroke-width="2"/><circle class="k1 ring" cx="271.5" cy="78" r="4" stroke-width="2"/><circle class="k1 ring" cx="302.5" cy="82" r="4" stroke-width="2"/><circle class="k1 ring" cx="333.5" cy="76" r="4" stroke-width="2"/><circle class="k1 ring" cx="364.5" cy="138" r="4" stroke-width="2"/><circle class="k1 ring" cx="395.5" cy="144" r="4" stroke-width="2"/><circle class="k1 ring" cx="426.5" cy="132" r="4" stroke-width="2"/><circle class="k1 ring" cx="457.5" cy="140" r="4" stroke-width="2"/><circle class="k1 ring" cx="488.5" cy="148" r="4" stroke-width="2"/><circle class="k1 ring" cx="519.5" cy="136" r="4" stroke-width="2"/><circle class="k1 ring" cx="550.5" cy="142" r="4" stroke-width="2"/><circle class="k1 ring" cx="581.5" cy="134" r="4" stroke-width="2"/><circle class="k1 ring" cx="612.5" cy="140" r="4" stroke-width="2"/><circle class="k1 ring" cx="643.5" cy="146" r="4" stroke-width="2"/><circle class="k1 ring" cx="674.5" cy="138" r="4" stroke-width="2"/><line class="critl" x1="349" y1="34" x2="349" y2="262" stroke-width="1.5" stroke-dasharray="5 4"/><text class="ink" x="357" y="44" font-size="12" text-anchor="start" font-weight="700">여기서 바뀌었다</text><rect class="pn" x="70" y="208" width="620" height="54" rx="8"/><text class="sub" x="62" y="240" font-size="11.5" text-anchor="end">변경 이력</text><rect class="f0 s0" x="132" y="227.5" width="30.9" height="20.5" rx="10.25" stroke-width="1"/><text class="ink" x="147.5" y="243" font-size="11.5" text-anchor="middle" font-weight="700">PM</text><rect class="f2 s2" x="311.3" y="227.5" width="81.6" height="20.5" rx="10.25" stroke-width="1"/><text class="ink" x="352.1" y="243" font-size="11.5" text-anchor="middle" font-weight="700">약품 lot 교체</text><rect class="f0 s0" x="452.1" y="227.5" width="72.9" height="20.5" rx="10.25" stroke-width="1"/><text class="ink" x="488.5" y="243" font-size="11.5" text-anchor="middle" font-weight="700">작업자 교대</text><text class="ink" x="360" y="290" font-size="12.5" text-anchor="middle" font-weight="600">→ 바뀐 시점과 겹치는 변경은 약품 lot 교체 — 먼저 확인할 후보</text></svg>
