<svg xmlns="http://www.w3.org/2000/svg" viewBox="0 0 720 300" width="720" height="300" role="img" aria-labelledby="t-spc-fdc"><title id="t-spc-fdc">FDC는 빨리 잡고, SPC는 품질 영향을 확인한다</title><defs><style>
text{font-family:Pretendard,'Apple SD Gothic Neo','Malgun Gothic','Noto Sans KR',system-ui,-apple-system,'Segoe UI',sans-serif}
.bg{fill:var(--fig-bg,#fcfcfb)}
.pn{fill:var(--fig-panel,#f1f2f4)}
.ink{fill:var(--fig-ink,#1c2230)}
.sub{fill:var(--fig-sub,#52514e)}
.mut{fill:var(--fig-mut,#898781)}
.ax{stroke:var(--fig-axis,#c3c2b7);fill:none}
.gr{stroke:var(--fig-grid,#e1e0d9);fill:none}
.ed{stroke:var(--fig-edge,#7d8797);fill:none}
.ah{fill:var(--fig-edge,#7d8797)}
.ring{stroke:var(--fig-bg,#fcfcfb)}
.f0{fill:var(--fig-0w,#eef0f3)} .s0{stroke:var(--fig-0,#8a94a6)} .k0{fill:var(--fig-0,#8a94a6)} .l0{stroke:var(--fig-0,#8a94a6);fill:none}
.f1{fill:var(--fig-1w,#dbe8fa)} .s1{stroke:var(--fig-1,#2a78d6)} .k1{fill:var(--fig-1,#2a78d6)} .l1{stroke:var(--fig-1,#2a78d6);fill:none}
.f2{fill:var(--fig-2w,#fbe1d5)} .s2{stroke:var(--fig-2,#eb6834)} .k2{fill:var(--fig-2,#eb6834)} .l2{stroke:var(--fig-2,#eb6834);fill:none}
.f3{fill:var(--fig-3w,#d3f1e5)} .s3{stroke:var(--fig-3,#1baf7a)} .k3{fill:var(--fig-3,#1baf7a)} .l3{stroke:var(--fig-3,#1baf7a);fill:none}
.f4{fill:var(--fig-4w,#fcefcc)} .s4{stroke:var(--fig-4,#eda100)} .k4{fill:var(--fig-4,#eda100)} .l4{stroke:var(--fig-4,#eda100);fill:none}
.f5{fill:var(--fig-5w,#e3dff7)} .s5{stroke:var(--fig-5,#4a3aa7)} .k5{fill:var(--fig-5,#4a3aa7)} .l5{stroke:var(--fig-5,#4a3aa7);fill:none}
.q1{fill:var(--fig-q1,#cde2fb)} .q2{fill:var(--fig-q2,#9ec5f4)} .q3{fill:var(--fig-q3,#6da7ec)}
.good{fill:#0ca30c} .crit{fill:#d03b3b} .critl{stroke:#d03b3b;fill:none} .critw{fill:#d03b3b;fill-opacity:.28}
.m-si{fill:var(--m-si,#c7ccd6)} .m-ox{fill:var(--m-ox,#cfe3f4)} .m-pr{fill:var(--m-pr,#cbbbe9)}
.m-cu{fill:var(--m-cu,#e09a5f)} .m-ni{fill:var(--m-ni,#a9b1bd)} .m-sn{fill:var(--m-sn,#dfe5ec)}
.m-imc{fill:var(--m-imc,#8f7b66)} .m-al{fill:var(--m-al,#b7c4d6)} .m-emc{fill:var(--m-emc,#4c5363)}
.m-sub{fill:var(--m-sub,#7f9c78)} .m-n{fill:var(--m-n,#9fc3f0)} .m-p{fill:var(--m-p,#f2d2c2)} .m-gate{fill:var(--m-gate,#8b93a7)}
.m-bath{fill:var(--m-bath,#e7f1fb)}
.nterm{fill:var(--n-term-fill,#e8f6ee);stroke:var(--n-term-stroke,#2e9e5b)}
.nproc{fill:var(--n-process-fill,#ffffff);stroke:var(--n-process-stroke,#8a94a6)}
.ndec{fill:var(--n-decision-fill,#fff6e3);stroke:var(--n-decision-stroke,#d9921a)}
.nio{fill:var(--n-io-fill,#edf2ff);stroke:var(--n-io-stroke,#5b7bd5)}
.mono{font-family:ui-monospace,'D2Coding',Consolas,monospace}
</style><marker id="ah-spc-fdc" viewBox="0 0 10 10" refX="9" refY="5" markerWidth="7" markerHeight="7" orient="auto-start-reverse"><path d="M0,0 L10,5 L0,10 z" class="ah"/></marker></defs><rect class="bg" x="0" y="0" width="720" height="300" rx="12"/><rect class="pn" x="20" y="30" width="680" height="104" rx="10"/><text class="ink" x="34" y="58" font-size="14" text-anchor="start" font-weight="700">FDC</text><text class="sub" x="34" y="78" font-size="11.5" text-anchor="start">설비 센서</text><text class="sub" x="34" y="93.5" font-size="11.5" text-anchor="start">공정 중 · 웨이퍼마다</text><polyline class="l1" stroke-width="2" points="160,92 164.4,87.1 168.8,86.8 173.2,89.8 177.7,91.1 182.1,88.3 186.5,85.1 190.9,86.3 195.3,91.6 199.8,95.6 204.2,95 208.6,92.3 213,92.7 217.4,96.8 221.8,99.9 226.2,97.9 230.7,92.8 235.1,90 239.5,91.6 243.9,93.6 248.3,91.6 252.8,86.6 257.2,84 261.6,86.6 266,91 270.4,92.2 274.8,89.8 279.2,88.5 283.7,92 288.1,97.4 292.5,99.3 296.9,96.4 301.3,93 305.8,93.5 310.2,96.6 314.6,96.9 319,92.5 323.4,87.2 327.8,55.6 332.2,58.6 336.7,60.5 341.1,58.3 345.5,85.5 349.9,86.1 354.3,91.1 358.8,95.7 363.2,95.7 367.6,92.9 372,92.5 376.4,96.2 380.8,99.7 385.2,98.3 389.7,93.2 394.1,89.7 398.5,90.8 402.9,93.2 407.3,91.9 411.8,87.2 416.2,84 420.6,86 425,90.7 429.4,92.6 433.8,90.6 438.2,88.8 442.7,91.5 447.1,97 451.5,99.6 455.9,97.1 460.3,93.2 464.8,93 469.2,95.9 473.6,96.9 478,93 482.4,87.5 486.8,85.7 491.2,88.5 495.7,91 500.1,89.6 504.5,86.1 508.9,85.9 513.3,90.6 517.8,95.6 522.2,96.3 526.6,93.6 531,92.5 535.4,95.6 539.8,99.3 544.2,98.7 548.7,93.7 553.1,89.6 557.5,90 561.9,92.6 566.3,92.1 570.8,87.7 575.2,84.1 579.6,85.5 584,90.2 588.4,93 592.8,91.4 597.2,89.3 601.7,91.2 606.1,96.5 610.5,99.7 614.9,97.7 619.3,93.6 623.8,92.5 628.2,95.1 632.6,96.6 637,93.4 641.4,87.8 645.8,85.3 650.2,87.8 654.7,90.8 659.1,90.1 663.5,86.7 667.9,85.9 672.3,90.1 676.8,95.5 681.2,96.9 685.6,94.3 690,92.5"/><line class="critl" x1="160" y1="68" x2="690" y2="68" stroke-width="1.2" stroke-dasharray="4 3"/><circle class="critl" cx="333.6" cy="58" r="9" stroke-width="1.6"/><text class="ink" x="347.6" y="54" font-size="12" text-anchor="start" font-weight="700">7번 웨이퍼에서 바로 감지</text><rect class="pn" x="20" y="148" width="680" height="104" rx="10"/><text class="ink" x="34" y="176" font-size="14" text-anchor="start" font-weight="700">SPC</text><text class="sub" x="34" y="196" font-size="11.5" text-anchor="start">계측 결과</text><text class="sub" x="34" y="211.5" font-size="11.5" text-anchor="start">공정 후 · 샘플링</text><line class="ax" x1="160" y1="178" x2="690" y2="178" stroke-width="1.2" stroke-dasharray="4 3"/><line class="gr" x1="160" y1="206" x2="690" y2="206" stroke-width="1"/><circle class="k1 ring" cx="226.2" cy="202" r="5" stroke-width="2"/><circle class="k1 ring" cx="491.2" cy="198" r="5" stroke-width="2"/><circle class="k1 ring" cx="623.8" cy="209" r="5" stroke-width="2"/><circle class="crit ring" cx="358.8" cy="170" r="5" stroke-width="2"/><text class="ink" x="368.8" y="166" font-size="12" text-anchor="start" font-weight="700">lot 계측에서 품질 영향 확인</text><line class="ax" x1="160" y1="266" x2="690" y2="266" stroke-width="1.2"/><text class="mut" x="173.2" y="284" font-size="11.5" text-anchor="middle">1</text><text class="mut" x="305.8" y="284" font-size="11.5" text-anchor="middle">6</text><text class="mut" x="438.2" y="284" font-size="11.5" text-anchor="middle">11</text><text class="mut" x="570.8" y="284" font-size="11.5" text-anchor="middle">16</text><text class="mut" x="690" y="284" font-size="11.5" text-anchor="end">웨이퍼 순서 →</text></svg>
